<svg xmlns="http://www.w3.org/2000/svg" xmlns:xlink="http://www.w3.org/1999/xlink" width="300" zoomAndPan="magnify" viewBox="0 0 224.87999 187.499995" height="250" preserveAspectRatio="xMidYMid meet" version="1.0"><defs><g/><clipPath id="d74dbce669"><path d="M 79.398438 18.699219 L 160.898438 18.699219 L 160.898438 93.5 L 79.398438 93.5 Z M 79.398438 18.699219 " clip-rule="nonzero"/></clipPath><clipPath id="5820837661"><path d="M 212 103 L 224.519531 103 L 224.519531 115 L 212 115 Z M 212 103 " clip-rule="nonzero"/></clipPath></defs><path stroke-linecap="butt" transform="matrix(0.748728, 0, 0, 0.748005, 45.927848, 156.653853)" fill="none" stroke-linejoin="miter" d="M 0.00245696 0.499316 L 177.840467 0.499316 " stroke="#ffffff" stroke-width="1" stroke-opacity="1" stroke-miterlimit="4"/><g clip-path="url(#d74dbce669)"><path fill="#ffffff" d="M 129.128906 25.097656 C 127.648438 24.625 126.160156 24.171875 124.65625 23.753906 C 123.132812 23.332031 120.886719 22.773438 118.917969 22.320312 C 117.179688 21.917969 115.65625 21.59375 115.039062 21.519531 C 114.910156 21.503906 114.832031 21.484375 114.734375 21.5 C 114.65625 21.511719 114.5625 21.542969 114.421875 21.621094 C 112.992188 22.457031 111.957031 23.683594 111.257812 25.097656 C 110.566406 26.488281 110.199219 28.0625 110.101562 29.640625 C 110.046875 30.460938 110.164062 31.09375 110.398438 31.589844 C 110.613281 32.035156 110.929688 32.375 111.328125 32.632812 L 112.222656 33.140625 C 111.96875 33.289062 111.710938 33.4375 111.453125 33.582031 C 110.636719 34.039062 109.820312 34.480469 109.015625 34.871094 L 105.710938 36.523438 C 105.453125 36.65625 105.203125 36.835938 104.964844 37.039062 C 104.632812 37.316406 104.320312 37.636719 104.03125 37.898438 L 103.273438 38.667969 L 100.335938 42.179688 C 98.695312 44.261719 96.355469 47.460938 93.832031 50.035156 C 92.84375 51.050781 91.839844 51.976562 90.804688 52.683594 C 90.023438 53.214844 89.234375 53.636719 88.4375 53.867188 C 88.328125 53.898438 88.257812 54.011719 88.285156 54.125 C 88.3125 54.234375 88.429688 54.304688 88.542969 54.277344 C 89.40625 54.097656 90.28125 53.730469 91.148438 53.214844 C 92.265625 52.554688 93.378906 51.660156 94.433594 50.628906 C 97.035156 48.082031 99.308594 44.769531 100.953125 42.65625 L 103.816406 39.140625 L 104.515625 38.414062 C 104.792969 38.152344 105.09375 37.835938 105.410156 37.5625 C 105.609375 37.390625 105.816406 37.230469 106.027344 37.117188 L 109.292969 35.425781 C 110.101562 35.011719 110.921875 34.554688 111.742188 34.078125 C 112.953125 33.371094 114.160156 32.621094 115.308594 31.925781 C 115.476562 31.824219 115.878906 31.625 115.804688 31.675781 C 114.46875 32.578125 113.636719 33.574219 113.773438 34.546875 C 113.875 35.230469 114.21875 35.914062 114.6875 36.476562 C 115.179688 37.0625 115.808594 37.519531 116.429688 37.71875 C 117.859375 38.167969 119.375 37.835938 120.769531 37.164062 C 122.039062 36.546875 123.203125 35.652344 124.105469 34.835938 C 124.042969 35.601562 123.6875 36.441406 123.171875 37.339844 C 122.492188 38.527344 121.515625 39.804688 120.316406 41.003906 C 118.5 42.824219 116.226562 44.492188 113.9375 45.503906 C 113.804688 45.5625 113.742188 45.714844 113.800781 45.847656 C 113.855469 45.980469 114.007812 46.042969 114.144531 45.984375 C 117.027344 44.808594 119.945312 42.664062 121.976562 40.375 C 122.390625 39.914062 122.769531 39.445312 123.101562 38.980469 C 123.1875 39.417969 123.367188 40.105469 123.632812 40.816406 C 123.785156 41.230469 123.964844 41.660156 124.171875 42.050781 C 124.367188 42.414062 124.578125 42.742188 124.792969 43.015625 C 124.96875 43.238281 125.144531 43.425781 125.3125 43.566406 C 125.171875 43.730469 125.054688 43.875 124.976562 43.976562 C 124.625 44.472656 124.339844 45 124.128906 45.550781 C 123.859375 46.261719 123.699219 47.007812 123.632812 47.753906 C 123.308594 48.421875 122.976562 49.1875 122.71875 49.828125 C 122.523438 50.300781 122.375 50.707031 122.285156 50.941406 C 121.792969 51.125 121.296875 51.347656 120.816406 51.621094 C 120.289062 51.921875 119.78125 52.273438 119.3125 52.671875 C 118.359375 53.488281 117.574219 54.484375 117.140625 55.609375 C 117.078125 55.777344 117.023438 55.953125 116.980469 56.132812 C 116.542969 56.351562 115.941406 57.203125 115.375 58.332031 C 115.003906 59.074219 114.628906 59.925781 114.304688 60.761719 C 113.605469 62.5625 113.105469 64.273438 113.023438 64.511719 C 112.058594 67.441406 111.109375 70.441406 109.808594 73.261719 C 108.949219 75.125 107.9375 76.914062 106.660156 78.554688 C 105.585938 79.9375 104.332031 81.0625 102.980469 82.042969 C 99.75 84.390625 95.964844 85.941406 92.632812 88.257812 C 91.230469 89.234375 89.800781 90.210938 88.398438 91.214844 C 87.457031 91.882812 86.527344 92.566406 85.625 93.265625 C 85.566406 93.308594 85.554688 93.390625 85.601562 93.449219 C 85.644531 93.507812 85.726562 93.519531 85.785156 93.472656 C 86.699219 92.789062 87.632812 92.128906 88.582031 91.476562 C 90 90.496094 91.445312 89.542969 92.863281 88.589844 C 96.234375 86.320312 100.054688 84.828125 103.328125 82.523438 C 104.738281 81.527344 106.050781 80.378906 107.183594 78.964844 C 108.515625 77.296875 109.582031 75.476562 110.484375 73.574219 C 111.828125 70.742188 112.816406 67.726562 113.824219 64.773438 C 113.898438 64.539062 114.449219 62.859375 115.066406 61.039062 C 115.351562 60.203125 115.644531 59.339844 115.933594 58.578125 C 116.207031 57.855469 116.460938 57.226562 116.71875 56.8125 C 116.785156 56.710938 116.902344 56.550781 116.902344 56.550781 C 116.832031 57.023438 116.808594 57.894531 116.925781 58.464844 C 116.929688 58.484375 116.835938 58.609375 116.601562 58.820312 C 116.128906 59.238281 115.867188 59.855469 115.941406 60.367188 C 115.996094 60.746094 116.226562 61.078125 116.695312 61.246094 C 117.429688 61.507812 118.742188 61.238281 120.121094 60.753906 C 121.648438 60.214844 123.257812 59.417969 124.226562 58.785156 C 124.453125 58.703125 124.746094 58.554688 125.042969 58.382812 C 125.464844 58.140625 126.207031 57.652344 126.210938 57.648438 C 126.574219 57.898438 127.148438 57.792969 127.917969 57.035156 C 128.953125 56.019531 129.832031 54.785156 130.597656 53.53125 C 131.96875 51.289062 132.953125 48.988281 133.71875 47.792969 C 134 47.355469 134.625 46.335938 134.914062 45.460938 C 135.019531 45.140625 135.074219 44.832031 135.074219 44.566406 C 135.308594 44.539062 135.621094 44.492188 136.246094 44.019531 C 136.621094 43.738281 137.195312 43.039062 137.773438 42.226562 C 138.492188 41.222656 139.222656 40.046875 139.582031 39.351562 C 141.644531 40.113281 143.1875 40.683594 144.339844 41.117188 C 147.3125 42.226562 147.695312 42.398438 147.792969 42.4375 C 148.089844 42.558594 148.578125 42.785156 149 42.789062 C 149.25 42.792969 149.484375 42.734375 149.671875 42.578125 C 149.679688 42.574219 150.433594 42.820312 150.433594 42.820312 C 151.527344 43.261719 152.414062 43.644531 153.15625 43.972656 C 154.382812 44.515625 155.191406 44.917969 155.820312 45.234375 L 157.820312 46.304688 C 157.964844 46.382812 158.085938 46.464844 158.230469 46.515625 C 158.316406 46.546875 158.40625 46.570312 158.503906 46.582031 C 158.824219 46.617188 159.136719 46.566406 159.402344 46.4375 C 159.691406 46.296875 159.925781 46.066406 160.070312 45.738281 C 160.1875 45.472656 160.210938 45.175781 160.28125 44.898438 C 160.300781 44.828125 160.320312 44.757812 160.355469 44.695312 C 160.382812 44.648438 160.421875 44.609375 160.460938 44.570312 C 160.519531 44.519531 160.582031 44.46875 160.644531 44.425781 C 160.808594 44.316406 160.871094 44.183594 160.890625 44.070312 C 160.914062 43.933594 160.898438 43.789062 160.789062 43.660156 C 160.714844 43.566406 160.53125 43.429688 160.246094 43.386719 L 158.183594 43.070312 C 158.007812 43.035156 157.808594 42.996094 157.59375 42.941406 C 156.933594 42.777344 156.109375 42.527344 155.265625 42.265625 C 153.324219 41.667969 150.171875 40.488281 150.171875 40.488281 C 150.199219 40.238281 149.933594 40.035156 149.644531 39.84375 C 149.171875 39.535156 148.402344 39.277344 147.621094 39.097656 C 147.078125 38.972656 146.125 38.65625 144.496094 38.050781 C 143.5 37.679688 140.707031 36.59375 140.707031 36.589844 C 140.984375 35.960938 141.234375 35.195312 141.441406 34.421875 C 141.648438 33.644531 141.8125 32.859375 141.914062 32.203125 C 141.996094 31.660156 142.074219 30.65625 141.8125 29.972656 C 141.65625 29.566406 141.390625 29.257812 140.988281 29.132812 C 140.878906 29.097656 134.378906 26.851562 131.238281 25.792969 C 131.183594 25.773438 131.128906 25.757812 131.078125 25.738281 C 129.320312 24.644531 127.746094 23.734375 126.25 22.949219 C 125.6875 22.65625 125.132812 22.378906 124.585938 22.117188 C 123.25 21.484375 121.945312 20.945312 120.605469 20.40625 C 119.914062 20.128906 119.21875 19.84375 118.515625 19.585938 C 118.046875 19.410156 117.570312 19.246094 117.089844 19.097656 C 116.757812 19 116.402344 18.847656 116.042969 18.765625 C 115.867188 18.726562 115.6875 18.699219 115.507812 18.699219 C 115.347656 18.699219 115.175781 18.730469 115 18.773438 C 114.679688 18.859375 114.34375 19.011719 114.058594 19.097656 C 112.492188 19.578125 110.957031 20.152344 109.46875 20.808594 C 107.964844 21.472656 106.507812 22.226562 105.117188 23.058594 C 104.140625 23.644531 103.300781 24.214844 102.523438 24.78125 C 101.921875 25.222656 101.363281 25.664062 100.800781 26.105469 C 99.574219 27.066406 98.351562 28.035156 96.800781 29.132812 C 95.988281 29.714844 95.25 30.207031 94.585938 30.652344 C 92.085938 32.339844 90.542969 33.214844 89.410156 34.429688 C 88.609375 35.289062 88.007812 36.328125 87.464844 37.960938 L 84.644531 46.34375 C 83.851562 48.652344 81.597656 54.902344 80.320312 59.882812 C 79.648438 62.488281 79.246094 64.753906 79.453125 65.933594 C 79.464844 66.003906 79.53125 66.054688 79.601562 66.042969 C 79.675781 66.03125 79.722656 65.964844 79.710938 65.890625 C 79.539062 64.730469 79.992188 62.523438 80.707031 59.984375 C 82.097656 55.050781 84.492188 48.871094 85.332031 46.585938 L 88.328125 38.253906 C 88.84375 36.792969 89.390625 35.863281 90.125 35.101562 C 91.242188 33.945312 92.792969 33.191406 95.191406 31.53125 C 95.859375 31.070312 96.582031 30.53125 97.382812 29.90625 C 98.460938 29.050781 99.355469 28.257812 100.226562 27.507812 C 100.855469 26.96875 101.46875 26.449219 102.117188 25.941406 C 103.097656 25.167969 104.15625 24.421875 105.464844 23.636719 C 106.835938 22.824219 108.269531 22.089844 109.75 21.441406 C 111.214844 20.800781 112.726562 20.246094 114.269531 19.777344 C 114.511719 19.707031 114.789062 19.585938 115.066406 19.5 C 115.21875 19.453125 115.367188 19.417969 115.507812 19.417969 C 115.675781 19.417969 115.84375 19.453125 116.011719 19.5 C 116.308594 19.582031 116.601562 19.707031 116.875 19.789062 C 117.34375 19.933594 117.804688 20.097656 118.261719 20.269531 C 118.957031 20.527344 119.644531 20.808594 120.328125 21.085938 C 121.65625 21.617188 122.945312 22.171875 124.28125 22.773438 C 124.828125 23.019531 125.386719 23.273438 125.957031 23.539062 C 126.964844 24.007812 128.011719 24.519531 129.128906 25.097656 Z M 96.113281 80.253906 C 97.078125 80.367188 98.921875 79.933594 100.890625 78.890625 C 102.230469 78.179688 103.632812 77.1875 104.847656 75.898438 C 106.015625 74.65625 107.179688 73.015625 108.128906 71.246094 C 109.0625 69.496094 109.78125 67.617188 110.085938 65.878906 C 110.484375 63.59375 110.597656 61.535156 110.570312 59.761719 C 110.527344 56.898438 110.117188 54.789062 109.988281 53.679688 C 109.910156 53.042969 109.855469 52.359375 109.96875 51.632812 C 110.011719 51.363281 110.074219 51.089844 110.167969 50.804688 C 110.304688 50.382812 110.5 49.953125 110.789062 49.488281 C 110.984375 49.167969 111.265625 48.804688 111.484375 48.484375 C 111.726562 48.136719 111.605469 47.921875 111.234375 48.222656 C 110.859375 48.523438 110.523438 48.789062 110.253906 49.085938 C 109.828125 49.550781 109.542969 50.027344 109.339844 50.492188 C 109.195312 50.824219 109.105469 51.152344 109.046875 51.476562 C 108.894531 52.296875 108.972656 53.074219 109.0625 53.792969 C 109.207031 54.886719 109.628906 56.960938 109.714844 59.78125 C 109.765625 61.511719 109.691406 63.519531 109.34375 65.757812 C 109.082031 67.433594 108.417969 69.246094 107.550781 70.945312 C 106.664062 72.6875 105.5625 74.304688 104.453125 75.535156 C 103.300781 76.804688 101.964844 77.792969 100.679688 78.507812 C 98.820312 79.542969 97.070312 80.007812 96.148438 79.921875 C 96.058594 79.914062 95.972656 79.980469 95.964844 80.074219 C 95.957031 80.164062 96.023438 80.246094 96.113281 80.253906 Z M 124.414062 58.035156 C 123.652344 58.707031 121.785156 59.785156 120.011719 60.457031 C 118.722656 60.949219 117.484375 61.226562 116.789062 60.984375 C 116.347656 60.824219 116.183594 60.472656 116.21875 60.09375 C 116.257812 59.722656 116.476562 59.332031 116.800781 59.046875 C 117.820312 58.171875 119.140625 57.261719 120.367188 56.640625 C 121.402344 56.117188 122.363281 55.792969 123 55.898438 C 123.464844 55.976562 123.90625 56.359375 124.199219 56.792969 C 124.386719 57.070312 124.511719 57.367188 124.539062 57.625 C 124.554688 57.792969 124.527344 57.945312 124.414062 58.035156 Z M 123.667969 49.792969 C 123.511719 50.285156 123.378906 50.726562 123.28125 51.035156 C 123.214844 51.242188 123.164062 51.390625 123.136719 51.460938 C 123.039062 51.726562 122.84375 51.78125 122.820312 51.789062 C 122.308594 51.964844 121.792969 52.195312 121.28125 52.464844 C 120.789062 52.722656 120.304688 53.015625 119.855469 53.347656 C 118.933594 54.023438 118.136719 54.847656 117.652344 55.832031 C 117.496094 56.140625 117.386719 56.492188 117.308594 56.855469 C 117.226562 57.246094 117.121094 58.097656 117.179688 58.328125 C 118.097656 57.578125 119.175781 56.847656 120.191406 56.308594 C 121.316406 55.71875 122.367188 55.375 123.066406 55.476562 C 123.753906 55.578125 124.429688 56.195312 124.777344 56.847656 C 124.96875 57.207031 125.050781 57.574219 125.007812 57.882812 C 125.347656 57.679688 125.683594 57.460938 125.925781 57.296875 C 125.671875 56.761719 125.6875 55.765625 126.023438 54.671875 C 126.027344 54.652344 125.957031 54.585938 125.925781 54.554688 C 125.585938 54.257812 125.292969 53.90625 125.042969 53.542969 C 124.773438 53.15625 124.558594 52.75 124.390625 52.394531 C 124.039062 51.636719 123.785156 50.746094 123.667969 49.792969 Z M 132.246094 48.960938 C 132.066406 48.597656 131.722656 48.292969 131.316406 48.15625 C 130.90625 48.015625 130.433594 48.039062 130.007812 48.34375 C 129.519531 48.691406 128.882812 49.515625 128.25 50.570312 C 127.554688 51.726562 126.875 53.15625 126.394531 54.53125 C 126.003906 55.699219 125.949219 56.773438 126.273438 57.242188 C 126.523438 57.597656 126.964844 57.476562 127.648438 56.769531 C 128.625 55.746094 129.445312 54.515625 130.144531 53.269531 C 131 51.742188 131.675781 50.191406 132.246094 48.960938 Z M 124.28125 39.402344 C 124.410156 39.796875 124.582031 40.261719 124.765625 40.738281 C 124.855469 40.964844 124.945312 41.195312 125.035156 41.421875 C 125.125 41.65625 125.210938 41.886719 125.300781 42.101562 C 125.457031 42.476562 125.601562 42.804688 125.765625 43.035156 C 125.773438 43.042969 125.976562 42.871094 126.082031 42.777344 C 126.488281 42.410156 126.957031 42.066406 127.417969 41.820312 C 127.875 41.574219 127.617188 42.359375 126.878906 43.097656 C 126.136719 43.835938 125.632812 44.59375 125.097656 45.929688 C 124.804688 46.664062 124.617188 47.4375 124.539062 48.207031 C 124.402344 49.617188 124.589844 51.015625 125.03125 52.121094 C 125.164062 52.457031 125.339844 52.839844 125.5625 53.214844 C 125.746094 53.523438 125.960938 53.828125 126.214844 54.09375 C 126.671875 52.792969 127.289062 51.46875 127.902344 50.371094 C 128.546875 49.230469 129.199219 48.328125 129.703125 47.9375 C 130.269531 47.496094 130.917969 47.4375 131.492188 47.609375 C 131.910156 47.730469 132.28125 47.980469 132.558594 48.296875 C 132.726562 47.949219 132.886719 47.640625 133.035156 47.378906 C 133.246094 47.015625 133.679688 46.246094 133.941406 45.511719 C 134.085938 45.09375 134.203125 44.699219 134.097656 44.445312 C 134.074219 44.390625 133.898438 44.277344 133.761719 44.21875 C 133.625 44.160156 132.359375 43.523438 130.484375 42.574219 C 128.785156 41.710938 126.585938 40.582031 124.28125 39.402344 Z M 150.144531 40.910156 C 150.058594 41.261719 150.011719 41.730469 149.933594 42.058594 C 149.992188 42.074219 150.457031 42.222656 150.636719 42.285156 C 151.757812 42.691406 152.667969 43.039062 153.421875 43.34375 C 154.6875 43.847656 155.519531 44.230469 156.164062 44.527344 L 158.210938 45.539062 C 158.300781 45.582031 158.382812 45.628906 158.464844 45.667969 C 158.503906 45.6875 158.546875 45.703125 158.59375 45.707031 C 158.738281 45.71875 158.878906 45.699219 159 45.636719 C 159.101562 45.582031 159.179688 45.496094 159.230469 45.378906 C 159.339844 45.113281 159.332031 44.8125 159.417969 44.539062 C 159.449219 44.4375 159.488281 44.339844 159.539062 44.246094 C 159.5625 44.203125 159.589844 44.164062 159.613281 44.125 C 159.492188 44.089844 159.371094 44.050781 159.25 44.015625 C 158.84375 43.886719 158.445312 43.75 158.042969 43.609375 C 157.738281 43.519531 157.367188 43.398438 156.945312 43.265625 C 156.191406 43.023438 155.285156 42.738281 154.410156 42.449219 C 152.699219 41.886719 150.144531 40.910156 150.144531 40.910156 Z M 141.148438 31.929688 C 141.210938 31.535156 141.265625 30.949219 141.167969 30.464844 C 141.109375 30.175781 141.015625 29.914062 140.761719 29.828125 C 140.660156 29.792969 140.535156 29.847656 140.394531 29.917969 C 140.160156 30.039062 139.90625 30.230469 139.648438 30.457031 C 138.992188 31.042969 138.34375 31.847656 138.046875 32.292969 C 137.582031 32.996094 136.890625 34.339844 136.253906 35.851562 C 135.734375 37.082031 135.253906 38.425781 134.949219 39.621094 C 134.535156 41.253906 134.46875 42.3125 134.609375 42.964844 C 134.6875 43.328125 134.820312 43.535156 135.015625 43.597656 C 135.253906 43.679688 135.53125 43.546875 135.746094 43.378906 C 135.851562 43.292969 135.976562 43.167969 136.113281 43.011719 C 135.871094 43.128906 135.667969 43.164062 135.507812 43.136719 C 135.222656 43.089844 135.003906 42.875 134.941406 42.441406 C 134.886719 42.058594 134.890625 41.515625 134.957031 40.941406 C 135.011719 40.453125 135.109375 39.941406 135.246094 39.492188 C 135.574219 38.390625 136.066406 36.929688 136.648438 35.542969 C 137.027344 34.628906 137.445312 33.746094 137.902344 33.023438 C 138.179688 32.578125 138.753906 31.695312 139.304688 31.160156 C 139.695312 30.78125 140.101562 30.605469 140.40625 30.699219 C 140.71875 30.796875 140.925781 31.054688 141.042969 31.398438 C 141.09375 31.5625 141.128906 31.742188 141.148438 31.929688 Z M 139.875 29.398438 C 136.941406 28.351562 134.015625 27.285156 131.066406 26.296875 C 128.902344 25.570312 126.722656 24.886719 124.511719 24.277344 C 122.992188 23.859375 120.753906 23.308594 118.792969 22.863281 C 117.078125 22.472656 115.578125 22.160156 114.96875 22.085938 C 114.90625 22.078125 114.867188 22.066406 114.820312 22.066406 C 114.792969 22.066406 114.769531 22.085938 114.71875 22.117188 C 113.398438 22.90625 112.449219 24.046875 111.816406 25.367188 C 111.183594 26.691406 110.871094 28.1875 110.804688 29.679688 C 110.78125 30.222656 110.835938 30.667969 110.96875 31.03125 C 111.121094 31.460938 111.386719 31.769531 111.738281 31.988281 C 111.738281 31.988281 112.972656 32.660156 113.003906 32.691406 C 113.699219 32.285156 114.382812 31.878906 115.046875 31.488281 C 115.699219 31.105469 117.5625 30.210938 118.71875 29.800781 C 119.171875 29.636719 119.53125 29.554688 119.691406 29.578125 C 119.722656 29.582031 122.105469 28.609375 123.019531 28.214844 C 125.230469 27.265625 126.882812 27.640625 127.332031 28.824219 C 127.734375 29.894531 127.683594 31.210938 125.804688 33.078125 C 125.605469 33.277344 125.222656 33.757812 124.691406 34.285156 C 124.660156 34.316406 124.636719 34.449219 124.636719 34.492188 C 124.746094 35.429688 124.488281 36.554688 123.878906 37.722656 C 123.816406 37.847656 123.746094 37.972656 123.675781 38.097656 L 133.925781 43.386719 C 133.710938 42.667969 133.71875 41.433594 134.257812 39.441406 C 134.585938 38.21875 135.101562 36.851562 135.640625 35.589844 C 136.308594 34.039062 137.015625 32.65625 137.492188 31.933594 C 137.855469 31.371094 138.71875 30.285156 139.519531 29.648438 C 139.636719 29.554688 139.753906 29.472656 139.875 29.398438 Z M 136.214844 38.113281 C 136.167969 38.09375 136.078125 38.082031 136.070312 38.101562 C 135.894531 38.640625 135.742188 39.148438 135.613281 39.597656 C 135.496094 40.027344 135.414062 40.515625 135.378906 40.980469 C 135.335938 41.511719 135.347656 42.015625 135.410156 42.363281 C 135.445312 42.558594 135.511719 42.671875 135.664062 42.640625 C 135.824219 42.609375 136.023438 42.484375 136.261719 42.289062 C 136.523438 42.070312 136.914062 41.535156 137.308594 40.925781 C 137.746094 40.25 138.1875 39.488281 138.460938 38.9375 C 137.765625 38.683594 137.019531 38.40625 136.214844 38.113281 Z M 144.335938 38.480469 C 142.691406 37.871094 136.976562 35.660156 136.972656 35.675781 C 136.734375 36.230469 136.519531 36.796875 136.328125 37.347656 C 136.320312 37.367188 136.414062 37.40625 136.46875 37.425781 C 140.324219 38.839844 142.890625 39.789062 144.597656 40.433594 C 147.59375 41.558594 147.972656 41.742188 148.074219 41.785156 C 148.28125 41.878906 148.601562 42.046875 148.910156 42.105469 C 149.039062 42.132812 149.277344 42.15625 149.371094 41.8125 C 149.464844 41.472656 149.546875 41.015625 149.65625 40.6875 C 149.773438 40.328125 149.476562 40.285156 149.140625 40.105469 C 148.710938 39.875 148.113281 39.691406 147.511719 39.550781 C 146.960938 39.421875 145.992188 39.097656 144.335938 38.480469 Z M 125.515625 32.851562 C 124.773438 33.589844 122.957031 35.632812 120.570312 36.746094 C 119.285156 37.347656 117.894531 37.652344 116.589844 37.226562 C 116.054688 37.050781 115.519531 36.648438 115.097656 36.140625 C 114.691406 35.652344 114.390625 35.0625 114.304688 34.472656 C 114.179688 33.648438 114.96875 32.863281 116.09375 32.09375 C 118.09375 30.71875 121.21875 29.492188 123.199219 28.621094 C 125.105469 27.785156 126.554688 27.945312 126.949219 28.96875 C 127.371094 30.054688 126.71875 31.65625 125.515625 32.851562 Z M 137.261719 35.253906 C 138.101562 35.582031 139.605469 36.152344 139.605469 36.144531 C 139.796875 35.695312 139.976562 35.179688 140.125 34.664062 C 140.28125 34.125 140.40625 33.585938 140.492188 33.128906 C 140.550781 32.8125 140.632812 32.238281 140.5625 31.765625 C 140.523438 31.503906 140.453125 31.261719 140.242188 31.1875 C 140.160156 31.160156 140.066406 31.203125 139.960938 31.265625 C 139.785156 31.367188 139.601562 31.53125 139.414062 31.726562 C 138.945312 32.21875 138.488281 32.886719 138.246094 33.246094 C 137.882812 33.792969 137.535156 34.4375 137.21875 35.121094 C 137.183594 35.199219 137.230469 35.238281 137.261719 35.253906 " fill-opacity="1" fill-rule="evenodd"/></g><g fill="#ffffff" fill-opacity="1"><g transform="translate(3.870958, 111.121263)"><g><path d="M 1.621094 -0.246094 C 1.785156 1.8125 2.167969 3.816406 3.046875 5.683594 C 3.789062 7.300781 4.53125 8.921875 5.792969 10.210938 C 9.058594 13.535156 13.066406 14.441406 17.515625 13.808594 C 20.671875 13.339844 23.304688 11.722656 25.558594 9.527344 C 28.523438 6.589844 30.691406 3.101562 32.476562 -0.632812 C 34.398438 -4.613281 36.125 -8.703125 38.15625 -12.65625 C 40.050781 -16.386719 42.277344 -19.902344 45.15625 -22.949219 C 46.230469 -24.074219 47.355469 -25.144531 48.644531 -25.96875 C 48.863281 -26.078125 49.054688 -26.269531 49.332031 -26.132812 C 49.414062 -26.105469 49.523438 -26.132812 49.578125 -26.242188 C 49.632812 -26.355469 49.578125 -26.464844 49.46875 -26.519531 C 49.25 -26.710938 49 -26.765625 48.699219 -26.765625 C 48.039062 -26.765625 47.492188 -26.464844 46.941406 -26.160156 C 45.707031 -25.421875 44.582031 -24.515625 43.566406 -23.5 C 40.984375 -20.917969 38.898438 -18.035156 37.113281 -14.878906 C 37.058594 -14.742188 37.03125 -14.578125 36.839844 -14.496094 C 36.867188 -15.261719 36.703125 -15.949219 36.429688 -16.636719 C 35.332031 -19.492188 32.722656 -20.808594 29.757812 -20.039062 C 28.191406 -19.628906 26.875 -18.777344 25.640625 -17.761719 C 21.605469 -14.382812 18.75 -10.128906 16.800781 -5.242188 C 16.085938 -3.429688 15.703125 -1.511719 15.921875 0.464844 C 16.003906 1.316406 16.167969 2.167969 16.800781 2.800781 C 17.953125 3.980469 19.601562 4.667969 21.414062 3.488281 C 22.675781 2.636719 23.828125 1.621094 24.898438 0.550781 C 27.3125 -1.867188 29.484375 -4.503906 31.871094 -6.945312 C 32.667969 -7.769531 33.4375 -8.566406 34.203125 -9.359375 C 34.230469 -9.359375 34.257812 -9.359375 34.257812 -9.332031 C 34.230469 -9.25 34.175781 -9.167969 34.148438 -9.085938 C 33.269531 -7.21875 32.367188 -5.351562 31.488281 -3.488281 C 30.222656 -0.796875 28.933594 1.867188 27.257812 4.308594 C 25.695312 6.5625 24.046875 8.675781 21.90625 10.375 C 18.777344 12.875 15.261719 13.726562 11.390625 12.792969 C 8.648438 12.105469 6.726562 10.347656 5.351562 7.960938 C 3.871094 5.40625 3.046875 2.664062 2.882812 -0.273438 C 2.746094 -2.5 2.636719 -4.695312 2.992188 -6.890625 C 4.390625 -15.34375 8.675781 -22.042969 15.34375 -27.257812 C 17.652344 -29.042969 20.203125 -30.363281 23.140625 -30.828125 C 24.210938 -30.992188 25.28125 -30.992188 26.296875 -30.445312 C 27.039062 -30.03125 27.398438 -29.402344 27.285156 -28.550781 C 27.285156 -28.414062 27.3125 -28.332031 27.398438 -28.273438 C 27.671875 -28.027344 28.300781 -27.972656 28.578125 -28.191406 C 28.90625 -28.441406 28.769531 -28.769531 28.6875 -29.097656 C 28.6875 -29.125 28.660156 -29.179688 28.632812 -29.207031 C 28.300781 -30.003906 27.699219 -30.5 26.957031 -30.882812 C 25.476562 -31.625 23.9375 -31.789062 22.316406 -31.488281 C 19.765625 -31.046875 17.570312 -29.921875 15.429688 -28.523438 C 12.574219 -26.683594 10.265625 -24.265625 8.152344 -21.605469 C 4.832031 -17.375 2.691406 -12.601562 1.757812 -7.300781 C 1.34375 -4.941406 1.425781 -2.609375 1.621094 -0.246094 Z M 24.953125 -1.621094 C 23.691406 -0.273438 22.316406 0.960938 20.78125 2.03125 C 20.285156 2.359375 19.792969 2.664062 19.214844 2.855469 C 18.363281 3.101562 18.007812 2.910156 17.789062 2.058594 C 17.652344 1.511719 17.625 0.960938 17.625 0.410156 C 17.652344 -1.703125 18.253906 -3.707031 19.105469 -5.628906 C 20.835938 -9.5 23.085938 -13.039062 26.214844 -15.949219 C 27.371094 -17.019531 28.605469 -17.925781 30.03125 -18.558594 C 30.882812 -18.941406 31.734375 -19.105469 32.640625 -19.105469 C 33.328125 -19.078125 33.847656 -18.832031 34.257812 -18.28125 C 35.164062 -17.101562 35.6875 -15.785156 35.742188 -14.300781 C 35.742188 -14.027344 35.769531 -13.753906 35.769531 -13.480469 C 35.769531 -13.394531 35.742188 -13.257812 35.796875 -13.203125 C 36.207031 -12.765625 35.796875 -12.574219 35.550781 -12.324219 C 31.789062 -8.976562 28.414062 -5.269531 24.953125 -1.621094 Z M 24.953125 -1.621094 "/></g></g></g><g fill="#ffffff" fill-opacity="1"><g transform="translate(42.514275, 111.121263)"><g><path d="M 12.351562 -4.722656 C 11.089844 -4.089844 9.910156 -3.347656 8.839844 -2.414062 C 7.410156 -1.207031 6.039062 0.109375 4.667969 1.398438 C 3.597656 2.441406 2.527344 3.488281 1.261719 4.308594 C 0.769531 4.640625 0.21875 4.886719 -0.355469 5.023438 C -0.878906 5.105469 -0.988281 5.050781 -1.207031 4.585938 C -1.398438 4.144531 -1.425781 3.679688 -1.425781 3.210938 C -1.480469 1.894531 -1.097656 0.660156 -0.714844 -0.550781 C -0.0273438 -2.636719 0.851562 -4.613281 1.839844 -6.535156 C 2.140625 -7.136719 2.46875 -7.714844 2.773438 -8.316406 L 2.800781 -8.316406 C 9.964844 -16.332031 17.101562 -28.054688 17.265625 -30.03125 C 17.433594 -30.472656 16.855469 -31.433594 16.386719 -31.046875 C 16.167969 -30.855469 15.921875 -30.664062 15.730469 -30.445312 C 14.410156 -28.988281 13.121094 -27.507812 11.886719 -25.96875 C 10.429688 -24.183594 9.113281 -22.289062 7.851562 -20.339844 C 6.589844 -18.335938 5.351562 -16.359375 4.171875 -14.300781 C 2.828125 -11.996094 1.566406 -9.664062 0.382812 -7.273438 C -0.410156 -5.738281 -1.152344 -4.171875 -1.730469 -2.527344 C -2.277344 -0.933594 -2.664062 0.660156 -2.664062 2.359375 C -2.664062 3.019531 -2.527344 3.625 -2.277344 4.199219 C -1.839844 5.296875 -0.824219 5.792969 0.328125 5.492188 C 0.550781 5.433594 0.769531 5.324219 0.988281 5.242188 C 1.675781 4.914062 2.25 4.445312 2.828125 3.980469 C 4.558594 2.582031 6.121094 1.042969 7.714844 -0.492188 C 8.484375 -1.207031 9.25 -1.976562 10.046875 -2.691406 C 10.980469 -3.515625 12.023438 -4.171875 13.257812 -4.722656 C 12.875 -4.96875 12.601562 -4.859375 12.351562 -4.722656 Z M 4.804688 -12.050781 C 6.5625 -15.152344 8.425781 -18.171875 10.402344 -21.164062 C 11.96875 -23.5 13.753906 -25.695312 15.484375 -27.917969 C 15.8125 -28.332031 16.140625 -28.742188 16.472656 -29.152344 C 15.839844 -27.78125 14.550781 -25.503906 12.546875 -22.34375 C 9.828125 -18.0625 6.78125 -13.890625 3.953125 -10.515625 C 4.226562 -11.035156 4.53125 -11.558594 4.804688 -12.050781 Z M 4.804688 -12.050781 "/></g></g></g><g fill="#ffffff" fill-opacity="1"><g transform="translate(54.700097, 111.121263)"><g><path d="M 5.269531 1.125 C 7.851562 0.164062 13.175781 -3.898438 18.308594 -4.585938 C 18.144531 -4.941406 17.898438 -4.941406 17.679688 -4.941406 C 13.203125 -4.445312 7.328125 -0.578125 5.601562 0.246094 C 4.832031 0.605469 4.035156 0.851562 3.15625 0.933594 C 2.527344 0.988281 1.949219 0.851562 1.511719 0.328125 C 0.464844 -1.015625 0.382812 -2.414062 1.070312 -3.925781 C 1.207031 -4.226562 1.371094 -4.390625 1.757812 -4.28125 C 2.277344 -4.144531 2.800781 -4.171875 3.320312 -4.335938 C 4.390625 -4.695312 5.269531 -5.351562 6.066406 -6.121094 C 6.203125 -6.257812 6.285156 -6.394531 6.367188 -6.5625 C 6.589844 -7 6.507812 -7.4375 6.09375 -7.742188 C 5.433594 -8.207031 4.722656 -8.484375 3.925781 -8.234375 C 1.867188 -7.632812 0.300781 -6.421875 -0.464844 -4.363281 C -0.933594 -3.101562 -0.796875 -1.894531 -0.136719 -0.796875 C 1.207031 1.398438 2.800781 2.058594 5.269531 1.125 Z M 5.214844 -7.191406 C 4.886719 -6.175781 3.101562 -5.050781 2.003906 -5.160156 C 2.441406 -6.121094 4.226562 -7.246094 5.214844 -7.191406 Z M 5.214844 -7.191406 "/></g></g></g><g fill="#ffffff" fill-opacity="1"><g transform="translate(72.594585, 111.121263)"><g><path d="M 2.195312 -6.617188 C 1.839844 -6.917969 1.539062 -6.917969 1.179688 -6.589844 C 1.042969 -6.449219 0.90625 -6.3125 0.769531 -6.175781 C -0.90625 -3.925781 -2.222656 -1.539062 -2.5 1.316406 C -2.609375 2.058594 -2.582031 2.800781 -2.414062 3.542969 C -2.277344 4.117188 -2.03125 4.695312 -1.648438 5.1875 C -0.878906 6.09375 -0.0273438 6.203125 0.960938 5.574219 C 1.125 5.460938 1.289062 5.296875 1.453125 5.160156 C 2.855469 3.980469 4.089844 2.636719 5.351562 1.316406 C 6.890625 -0.300781 8.566406 -1.675781 10.597656 -2.664062 C 11.75 -3.210938 12.847656 -3.816406 14.054688 -4.253906 C 14.164062 -4.28125 14.273438 -4.308594 14.246094 -4.445312 C 14.246094 -4.558594 14.136719 -4.613281 14.027344 -4.613281 C 13.808594 -4.640625 13.644531 -4.558594 13.480469 -4.476562 C 12.847656 -4.199219 12.214844 -3.925781 11.613281 -3.625 C 10.402344 -3.046875 9.140625 -2.527344 7.988281 -1.785156 C 6.3125 -0.769531 4.886719 0.578125 3.542969 2.003906 C 2.773438 2.773438 2.085938 3.625 1.179688 4.226562 C 0.660156 4.585938 0.164062 4.941406 -0.492188 4.96875 C -0.988281 4.996094 -1.125 4.886719 -1.234375 4.417969 C -1.371094 3.84375 -1.371094 3.265625 -1.316406 2.691406 C -1.097656 0.550781 -0.273438 -1.398438 0.824219 -3.238281 C 1.316406 -4.0625 1.839844 -4.804688 2.332031 -5.601562 C 2.582031 -6.011719 2.527344 -6.339844 2.195312 -6.617188 Z M 3.457031 -7.960938 C 3.707031 -7.878906 3.871094 -8.042969 3.84375 -8.289062 C 3.84375 -8.703125 3.375 -9.113281 2.910156 -9.167969 C 2.664062 -9.195312 2.527344 -9.03125 2.609375 -8.785156 C 2.746094 -8.371094 3.074219 -8.097656 3.457031 -7.960938 Z M 3.457031 -7.960938 "/></g></g></g><g fill="#ffffff" fill-opacity="1"><g transform="translate(86.454579, 111.121263)"><g><path d="M 18.777344 -4.832031 C 11.449219 -3.542969 10.460938 -1.894531 4.28125 3.402344 C 3.570312 4.035156 2.828125 4.613281 1.894531 4.832031 C 0.824219 5.132812 0.191406 4.886719 -0.273438 3.871094 C -2.167969 -0.273438 1.867188 -7.164062 4.417969 -7.988281 C 4.667969 -8.042969 4.804688 -7.988281 4.832031 -7.742188 C 4.914062 -7.382812 4.914062 -7.027344 4.804688 -6.671875 C 4.640625 -6.039062 4.390625 -5.460938 4.035156 -4.941406 C 3.789062 -4.613281 3.871094 -4.445312 4.226562 -4.335938 C 4.445312 -4.253906 4.640625 -4.253906 4.804688 -4.445312 C 5.574219 -5.351562 6.011719 -6.394531 5.847656 -7.605469 C 5.765625 -8.125 5.433594 -8.425781 4.941406 -8.59375 C 4.308594 -8.757812 3.734375 -8.648438 3.15625 -8.316406 C -1.070312 -5.683594 -3.074219 0.6875 -0.878906 3.980469 C -0.410156 4.695312 0.21875 5.105469 1.070312 5.214844 C 1.867188 5.324219 2.609375 5.105469 3.320312 4.722656 C 4.363281 4.117188 5.242188 3.320312 6.148438 2.527344 C 10.707031 -1.621094 13.285156 -4.035156 19.875 -4.558594 C 19.492188 -4.941406 19.132812 -4.859375 18.777344 -4.832031 Z M 18.777344 -4.832031 "/></g></g></g><g fill="#ffffff" fill-opacity="1"><g transform="translate(105.611561, 111.121263)"><g><path d="M 5.269531 1.125 C 7.851562 0.164062 13.175781 -3.898438 18.308594 -4.585938 C 18.144531 -4.941406 17.898438 -4.941406 17.679688 -4.941406 C 13.203125 -4.445312 7.328125 -0.578125 5.601562 0.246094 C 4.832031 0.605469 4.035156 0.851562 3.15625 0.933594 C 2.527344 0.988281 1.949219 0.851562 1.511719 0.328125 C 0.464844 -1.015625 0.382812 -2.414062 1.070312 -3.925781 C 1.207031 -4.226562 1.371094 -4.390625 1.757812 -4.28125 C 2.277344 -4.144531 2.800781 -4.171875 3.320312 -4.335938 C 4.390625 -4.695312 5.269531 -5.351562 6.066406 -6.121094 C 6.203125 -6.257812 6.285156 -6.394531 6.367188 -6.5625 C 6.589844 -7 6.507812 -7.4375 6.09375 -7.742188 C 5.433594 -8.207031 4.722656 -8.484375 3.925781 -8.234375 C 1.867188 -7.632812 0.300781 -6.421875 -0.464844 -4.363281 C -0.933594 -3.101562 -0.796875 -1.894531 -0.136719 -0.796875 C 1.207031 1.398438 2.800781 2.058594 5.269531 1.125 Z M 5.214844 -7.191406 C 4.886719 -6.175781 3.101562 -5.050781 2.003906 -5.160156 C 2.441406 -6.121094 4.226562 -7.246094 5.214844 -7.191406 Z M 5.214844 -7.191406 "/></g></g></g><g fill="#ffffff" fill-opacity="1"><g transform="translate(123.506049, 111.121263)"><g/></g></g><g fill="#ffffff" fill-opacity="1"><g transform="translate(134.484266, 111.121263)"><g><path d="M 3.238281 1.539062 C 2.386719 1.675781 1.621094 2.03125 1.015625 2.664062 C 0.410156 3.292969 0.464844 3.980469 1.179688 4.53125 C 1.511719 4.777344 1.894531 4.941406 2.277344 5.050781 C 3.238281 5.296875 4.171875 5.242188 5.105469 4.996094 C 6.808594 4.585938 8.261719 3.679688 9.636719 2.636719 C 9.855469 2.46875 10.074219 2.414062 10.347656 2.5 C 11.0625 2.691406 11.777344 2.882812 12.492188 3.074219 C 15.289062 3.761719 18.089844 4.363281 21 4.117188 C 22.511719 4.007812 24.019531 3.707031 25.503906 3.375 C 28.878906 2.636719 31.789062 1.042969 34.230469 -1.398438 C 35.082031 -2.25 35.824219 -3.238281 36.703125 -4.0625 C 36.785156 -4.144531 36.976562 -4.253906 36.839844 -4.390625 C 36.730469 -4.558594 36.511719 -4.558594 36.347656 -4.417969 C 36.152344 -4.28125 35.988281 -4.144531 35.824219 -3.980469 C 34.78125 -2.9375 33.628906 -2.058594 32.503906 -1.152344 C 30.25 0.632812 27.726562 1.921875 24.925781 2.582031 C 22.59375 3.15625 20.203125 3.652344 17.761719 3.375 C 15.867188 3.183594 14.027344 2.828125 12.214844 2.332031 C 11.695312 2.195312 11.199219 2.058594 10.597656 1.894531 C 12.078125 0.714844 13.339844 -0.578125 14.496094 -1.921875 C 17.761719 -5.765625 20.535156 -9.964844 22.949219 -14.382812 C 24.953125 -18.089844 27.148438 -21.6875 29.757812 -25.007812 C 30.527344 -25.996094 31.351562 -26.957031 32.199219 -28 C 32.226562 -27.726562 32.089844 -27.617188 32.007812 -27.453125 C 31.597656 -26.601562 31.128906 -25.75 30.910156 -24.789062 C 30.855469 -24.679688 30.800781 -24.515625 30.992188 -24.460938 C 31.15625 -24.40625 31.292969 -24.40625 31.378906 -24.570312 C 31.542969 -24.898438 31.734375 -25.199219 31.898438 -25.503906 C 32.886719 -27.398438 33.902344 -29.261719 35.246094 -30.910156 C 35.386719 -31.046875 35.6875 -31.183594 35.523438 -31.433594 C 35.386719 -31.652344 35.082031 -31.652344 34.835938 -31.652344 C 34.507812 -31.652344 34.316406 -31.460938 34.121094 -31.238281 C 33.683594 -30.773438 33.160156 -30.363281 32.695312 -29.949219 C 32.199219 -29.539062 31.734375 -29.070312 31.292969 -28.605469 C 28 -24.953125 25.308594 -20.863281 22.867188 -16.582031 C 20.535156 -12.519531 18.0625 -8.539062 15.070312 -4.914062 C 13.339844 -2.773438 11.613281 -0.632812 9.527344 1.207031 C 9.222656 1.480469 8.949219 1.566406 8.539062 1.511719 C 6.78125 1.207031 4.996094 1.207031 3.238281 1.539062 Z M 8.042969 2.03125 C 8.125 2.058594 8.207031 2.085938 8.371094 2.113281 C 6.917969 3.183594 5.492188 4.0625 3.816406 4.445312 C 3.347656 4.53125 2.882812 4.613281 2.414062 4.390625 C 1.8125 4.089844 1.703125 3.570312 2.167969 3.046875 C 2.636719 2.554688 3.238281 2.277344 3.898438 2.140625 C 5.269531 1.921875 6.671875 1.867188 8.042969 2.03125 Z M 8.042969 2.03125 "/></g></g></g><g fill="#ffffff" fill-opacity="1"><g transform="translate(169.971333, 111.121263)"><g><path d="M 1.703125 -2.441406 C 1.730469 -2.5 1.757812 -2.527344 1.785156 -2.582031 C 2.386719 -3.183594 2.800781 -3.898438 3.128906 -4.695312 C 3.429688 -5.40625 3.597656 -6.148438 3.515625 -6.945312 C 3.375 -8.179688 2.386719 -8.976562 1.152344 -8.8125 C 0.109375 -8.675781 -0.742188 -8.179688 -1.371094 -7.355469 C -1.703125 -6.945312 -1.921875 -6.480469 -1.949219 -5.957031 C -1.976562 -5.132812 -1.785156 -4.363281 -1.34375 -3.679688 C -1.179688 -3.429688 -1.179688 -3.265625 -1.316406 -3.019531 C -1.566406 -2.582031 -1.730469 -2.113281 -1.730469 -1.59375 C -1.703125 -0.742188 -0.933594 -0.300781 -0.21875 -0.742188 C -0.136719 -0.769531 -0.0820312 -0.824219 0 -0.878906 C 0.355469 -1.152344 0.742188 -1.425781 1.070312 -1.757812 C 1.179688 -1.867188 1.261719 -1.921875 1.425781 -1.894531 C 3.019531 -1.261719 7.136719 -2.359375 10.898438 -4.695312 C 10.816406 -4.722656 10.625 -4.859375 10.402344 -4.722656 C 8.539062 -3.625 5.40625 -2.664062 4.886719 -2.554688 C 2.746094 -2.140625 1.675781 -2.304688 1.675781 -2.304688 C 1.703125 -2.414062 1.703125 -2.441406 1.703125 -2.441406 Z M 0.246094 -2.03125 C -0.0820312 -1.675781 -0.410156 -1.34375 -0.90625 -1.207031 C -0.960938 -1.261719 -0.960938 -1.316406 -0.933594 -1.398438 C -0.851562 -1.757812 -0.714844 -2.113281 -0.523438 -2.441406 C -0.4375 -2.582031 -0.355469 -2.609375 -0.21875 -2.5 C -0.0820312 -2.414062 0.0546875 -2.332031 0.21875 -2.25 C 0.300781 -2.195312 0.328125 -2.113281 0.246094 -2.03125 Z M 0.960938 -2.828125 C 0.90625 -2.773438 0.878906 -2.691406 0.824219 -2.664062 C 0.742188 -2.636719 0.742188 -2.636719 0.464844 -2.773438 C -0.246094 -3.128906 -0.109375 -3.074219 0.109375 -3.402344 C 0.410156 -3.789062 0.769531 -4.117188 1.125 -4.417969 C 1.480469 -4.722656 1.511719 -4.777344 1.316406 -5.050781 C 1.070312 -5.40625 0.742188 -5.492188 0.4375 -5.296875 C 0.109375 -5.078125 -0.136719 -4.832031 -0.355469 -4.53125 C -0.523438 -4.308594 -0.714844 -4.0625 -0.90625 -3.789062 C -1.976562 -5.214844 -0.714844 -7.933594 1.371094 -7.796875 C 1.371094 -7.796875 2.71875 -7.632812 2.304688 -5.65625 C 2.085938 -4.613281 1.675781 -3.625 0.960938 -2.828125 Z M 0.960938 -2.828125 "/></g></g></g><g fill="#ffffff" fill-opacity="1"><g transform="translate(180.290844, 111.121263)"><g><path d="M 8.371094 -8.070312 C 5.65625 -9.773438 -0.191406 -0.273438 -0.246094 -0.300781 C 1.097656 -4.226562 3.625 -7.6875 3.761719 -7.933594 C 3.980469 -8.34375 4.144531 -8.539062 3.789062 -8.839844 C 3.429688 -9.140625 3.238281 -9.140625 2.800781 -8.894531 C 2.636719 -8.8125 2.5 -8.675781 2.359375 -8.539062 C 1.730469 -7.933594 1.234375 -7.21875 0.851562 -6.421875 C -0.191406 -4.390625 -1.070312 -2.277344 -1.648438 -0.0546875 C -1.8125 0.523438 -1.703125 0.523438 -2.414062 0.550781 C -2.691406 0.550781 -2.964844 0.632812 -3.238281 0.660156 C -4.199219 0.851562 -4.417969 1.785156 -3.84375 2.527344 C -3.625 2.800781 -3.375 3.046875 -3.074219 3.210938 C -2.882812 3.320312 -2.882812 3.457031 -2.992188 3.625 C -3.046875 3.734375 -3.101562 3.84375 -3.183594 3.953125 C -4.390625 6.09375 -5.65625 8.207031 -6.78125 10.402344 C -7.605469 11.941406 -8.261719 13.535156 -8.867188 15.179688 C -9.085938 15.839844 -9.25 16.527344 -9.277344 17.238281 C -9.304688 17.734375 -9.003906 18.0625 -8.621094 18.335938 C -8.261719 18.585938 -7.90625 18.476562 -7.578125 18.253906 C -7.355469 18.117188 -7.191406 17.980469 -7 17.816406 C -6.285156 17.15625 -5.765625 16.304688 -5.242188 15.484375 C -4.253906 13.917969 -3.488281 12.242188 -2.9375 10.488281 C -2.222656 8.289062 -1.59375 6.066406 -0.90625 3.84375 C -0.824219 3.597656 -0.714844 3.457031 -0.4375 3.402344 C 0.851562 3.15625 2.03125 2.582031 3.15625 1.867188 C 3.402344 1.703125 3.652344 1.59375 3.925781 1.566406 C 4.390625 1.539062 4.859375 1.480469 5.324219 1.398438 C 10.046875 0.714844 11.804688 -0.988281 15.949219 -4.390625 C 16.304688 -4.695312 16.140625 -4.914062 15.867188 -4.777344 C 15.316406 -4.476562 10.074219 0.605469 4.941406 0.605469 C 4.996094 0.355469 5.132812 0.246094 5.269531 0.109375 C 6.121094 -0.742188 6.945312 -1.648438 7.6875 -2.609375 C 8.484375 -3.625 9.113281 -4.777344 9.472656 -6.039062 C 9.773438 -7.109375 9.25 -7.523438 8.371094 -8.070312 Z M 8.125 -7.410156 C 7.933594 -6.367188 7.4375 -5.546875 6.917969 -4.75 C 5.902344 -3.15625 4.75 -1.648438 3.457031 -0.273438 C 2.414062 0.851562 1.867188 1.042969 0.382812 0.6875 C 0.164062 0.660156 0.0820312 0.550781 0.164062 0.355469 C 0.246094 0.164062 0.328125 -0.0546875 0.4375 -0.21875 C 0.578125 -0.410156 3.488281 -4.613281 6.726562 -6.78125 C 7.136719 -7.027344 7.523438 -7.355469 8.125 -7.410156 Z M -8.457031 17.210938 C -8.425781 16.664062 -8.234375 16.113281 -8.070312 15.59375 C -7.4375 13.671875 -6.617188 11.832031 -5.710938 10.046875 C -5.023438 8.675781 -4.253906 7.355469 -3.515625 6.011719 C -3.429688 5.847656 -2.800781 4.28125 -2.304688 3.570312 C -2.800781 5.324219 -4.722656 13.699219 -7.605469 16.664062 C -7.6875 16.71875 -8.234375 17.292969 -8.457031 17.210938 Z M -2.140625 1.480469 C -2.058594 1.757812 -2.140625 1.921875 -2.195312 2.085938 C -2.359375 2.664062 -2.46875 2.855469 -3.019531 2.746094 C -3.183594 2.71875 -3.457031 2.386719 -3.515625 2.195312 C -3.570312 1.976562 -3.597656 1.757812 -3.429688 1.621094 C -3.128906 1.398438 -2.527344 1.511719 -2.140625 1.480469 Z M -0.355469 2.167969 C -0.21875 1.398438 -0.136719 1.371094 0.742188 1.675781 C 0.410156 1.949219 0.0820312 2.03125 -0.355469 2.167969 Z M -0.355469 2.167969 "/></g></g></g><g fill="#ffffff" fill-opacity="1"><g transform="translate(196.126908, 111.121263)"><g><path d="M 5.269531 1.125 C 7.851562 0.164062 13.175781 -3.898438 18.308594 -4.585938 C 18.144531 -4.941406 17.898438 -4.941406 17.679688 -4.941406 C 13.203125 -4.445312 7.328125 -0.578125 5.601562 0.246094 C 4.832031 0.605469 4.035156 0.851562 3.15625 0.933594 C 2.527344 0.988281 1.949219 0.851562 1.511719 0.328125 C 0.464844 -1.015625 0.382812 -2.414062 1.070312 -3.925781 C 1.207031 -4.226562 1.371094 -4.390625 1.757812 -4.28125 C 2.277344 -4.144531 2.800781 -4.171875 3.320312 -4.335938 C 4.390625 -4.695312 5.269531 -5.351562 6.066406 -6.121094 C 6.203125 -6.257812 6.285156 -6.394531 6.367188 -6.5625 C 6.589844 -7 6.507812 -7.4375 6.09375 -7.742188 C 5.433594 -8.207031 4.722656 -8.484375 3.925781 -8.234375 C 1.867188 -7.632812 0.300781 -6.421875 -0.464844 -4.363281 C -0.933594 -3.101562 -0.796875 -1.894531 -0.136719 -0.796875 C 1.207031 1.398438 2.800781 2.058594 5.269531 1.125 Z M 5.214844 -7.191406 C 4.886719 -6.175781 3.101562 -5.050781 2.003906 -5.160156 C 2.441406 -6.121094 4.226562 -7.246094 5.214844 -7.191406 Z M 5.214844 -7.191406 "/></g></g></g><g clip-path="url(#5820837661)"><g fill="#ffffff" fill-opacity="1"><g transform="translate(214.021405, 111.121263)"><g><path d="M 3.238281 2.773438 C 3.15625 2.964844 2.992188 3.183594 3.183594 3.375 C 3.375 3.597656 3.625 3.542969 3.898438 3.488281 C 4.089844 3.457031 4.226562 3.320312 4.335938 3.183594 C 4.777344 2.636719 5.214844 2.113281 5.433594 1.453125 C 5.519531 1.207031 5.683594 1.015625 5.847656 0.824219 C 7.191406 -0.464844 8.539062 -1.757812 10.074219 -2.855469 C 10.183594 -2.9375 10.375 -2.992188 10.292969 -3.183594 C 10.210938 -3.347656 9.992188 -3.347656 9.828125 -3.292969 C 9.664062 -3.210938 9.5 -3.128906 9.332031 -3.019531 C 8.730469 -2.636719 8.152344 -2.195312 7.605469 -1.730469 C 7.027344 -1.234375 6.449219 -0.742188 5.820312 -0.191406 C 5.214844 -1.371094 4.585938 -1.703125 3.320312 -1.566406 C 3.128906 -1.566406 2.9375 -1.511719 2.746094 -1.480469 C 2.414062 -1.371094 2.113281 -1.289062 1.785156 -1.179688 C 1.316406 -1.042969 0.851562 -0.878906 0.382812 -0.742188 C 0 -0.660156 -0.0820312 -0.769531 -0.109375 -1.125 C -0.109375 -1.480469 -0.0273438 -1.8125 0.0820312 -2.113281 C 0.464844 -3.128906 0.933594 -4.089844 1.566406 -4.941406 C 2.140625 -5.710938 2.746094 -6.421875 3.652344 -6.863281 C 4.253906 -7.136719 4.53125 -7.054688 4.859375 -6.480469 C 5.050781 -6.09375 5.078125 -5.683594 5.023438 -5.242188 C 4.96875 -4.777344 5.242188 -4.53125 5.65625 -4.613281 C 5.929688 -4.667969 6.039062 -4.886719 6.066406 -5.105469 C 6.257812 -6.421875 5.957031 -7.382812 4.445312 -7.742188 C 3.570312 -7.933594 2.71875 -7.742188 1.949219 -7.300781 C 1.207031 -6.863281 0.605469 -6.257812 0.0820312 -5.574219 C -0.6875 -4.503906 -1.261719 -3.347656 -1.648438 -2.113281 C -1.949219 -1.070312 -1.511719 -0.355469 -0.464844 -0.109375 C -0.410156 -0.109375 -0.328125 -0.109375 -0.273438 -0.0820312 C 0.410156 0.0546875 1.070312 -0.0820312 1.730469 -0.300781 C 2.359375 -0.523438 3.019531 -0.6875 3.707031 -0.851562 C 3.953125 -0.90625 4.144531 -0.824219 4.28125 -0.578125 C 4.667969 0.0546875 4.585938 1.042969 4.035156 1.566406 C 3.652344 1.921875 3.402344 2.304688 3.238281 2.773438 Z M 3.238281 2.773438 "/></g></g></g></g><g fill="#ffffff" fill-opacity="1"><g transform="translate(11.630166, 137.885503)"><g><path d="M 7.578125 -8.078125 L 7.578125 0 L 7.03125 0 C 6.945312 0 6.875 -0.015625 6.8125 -0.046875 C 6.757812 -0.078125 6.703125 -0.128906 6.640625 -0.203125 L 1.96875 -6.296875 C 1.976562 -6.191406 1.984375 -6.09375 1.984375 -6 C 1.984375 -5.914062 1.984375 -5.835938 1.984375 -5.765625 L 1.984375 0 L 1.03125 0 L 1.03125 -8.078125 L 1.59375 -8.078125 C 1.644531 -8.078125 1.6875 -8.070312 1.71875 -8.0625 C 1.75 -8.0625 1.773438 -8.054688 1.796875 -8.046875 C 1.828125 -8.035156 1.851562 -8.015625 1.875 -7.984375 C 1.90625 -7.960938 1.9375 -7.929688 1.96875 -7.890625 L 6.65625 -1.8125 C 6.644531 -1.90625 6.632812 -2 6.625 -2.09375 C 6.625 -2.1875 6.625 -2.273438 6.625 -2.359375 L 6.625 -8.078125 Z M 7.578125 -8.078125 "/></g></g></g><g fill="#ffffff" fill-opacity="1"><g transform="translate(24.282192, 137.885503)"><g><path d="M 5.328125 -3 L 4.0625 -6.296875 C 4.019531 -6.390625 3.976562 -6.5 3.9375 -6.625 C 3.894531 -6.757812 3.851562 -6.898438 3.8125 -7.046875 C 3.738281 -6.742188 3.660156 -6.488281 3.578125 -6.28125 L 2.3125 -3 Z M 7.609375 0 L 6.75 0 C 6.65625 0 6.578125 -0.0195312 6.515625 -0.0625 C 6.460938 -0.113281 6.421875 -0.179688 6.390625 -0.265625 L 5.625 -2.21875 L 2 -2.21875 L 1.25 -0.265625 C 1.226562 -0.191406 1.179688 -0.128906 1.109375 -0.078125 C 1.046875 -0.0234375 0.96875 0 0.875 0 L 0.03125 0 L 3.265625 -8.078125 L 4.375 -8.078125 Z M 7.609375 0 "/></g></g></g><g fill="#ffffff" fill-opacity="1"><g transform="translate(35.958538, 137.885503)"><g><path d="M 2.125 0 L 1.03125 0 L 1.03125 -8.078125 L 2.125 -8.078125 Z M 2.125 0 "/></g></g></g><g fill="#ffffff" fill-opacity="1"><g transform="translate(43.156882, 137.885503)"><g><path d="M 5.625 -0.921875 L 5.625 0 L 1.03125 0 L 1.03125 -8.078125 L 2.125 -8.078125 L 2.125 -0.921875 Z M 5.625 -0.921875 "/></g></g></g><g fill="#ffffff" fill-opacity="1"><g transform="translate(52.989016, 137.885503)"><g/></g></g><g fill="#ffffff" fill-opacity="1"><g transform="translate(59.916652, 137.885503)"><g><path d="M 2.71875 -3.984375 C 2.320312 -3.773438 2.019531 -3.519531 1.8125 -3.21875 C 1.613281 -2.914062 1.515625 -2.585938 1.515625 -2.234375 C 1.515625 -1.984375 1.5625 -1.765625 1.65625 -1.578125 C 1.75 -1.398438 1.867188 -1.242188 2.015625 -1.109375 C 2.160156 -0.984375 2.328125 -0.890625 2.515625 -0.828125 C 2.703125 -0.765625 2.894531 -0.734375 3.09375 -0.734375 C 3.507812 -0.734375 3.882812 -0.804688 4.21875 -0.953125 C 4.5625 -1.109375 4.859375 -1.316406 5.109375 -1.578125 Z M 7.9375 0 L 6.953125 0 C 6.847656 0 6.757812 -0.0078125 6.6875 -0.03125 C 6.625 -0.0625 6.550781 -0.117188 6.46875 -0.203125 L 5.65625 -1.03125 C 5.300781 -0.6875 4.894531 -0.410156 4.4375 -0.203125 C 3.976562 -0.00390625 3.472656 0.09375 2.921875 0.09375 C 2.617188 0.09375 2.320312 0.0390625 2.03125 -0.0625 C 1.75 -0.164062 1.488281 -0.3125 1.25 -0.5 C 1.019531 -0.695312 0.835938 -0.929688 0.703125 -1.203125 C 0.566406 -1.484375 0.5 -1.800781 0.5 -2.15625 C 0.5 -2.414062 0.539062 -2.660156 0.625 -2.890625 C 0.71875 -3.128906 0.84375 -3.347656 1 -3.546875 C 1.15625 -3.753906 1.335938 -3.9375 1.546875 -4.09375 C 1.765625 -4.25 2.003906 -4.382812 2.265625 -4.5 C 2.035156 -4.789062 1.863281 -5.070312 1.75 -5.34375 C 1.644531 -5.613281 1.59375 -5.894531 1.59375 -6.1875 C 1.59375 -6.46875 1.640625 -6.726562 1.734375 -6.96875 C 1.835938 -7.207031 1.984375 -7.414062 2.171875 -7.59375 C 2.359375 -7.769531 2.585938 -7.910156 2.859375 -8.015625 C 3.128906 -8.117188 3.429688 -8.171875 3.765625 -8.171875 C 4.054688 -8.171875 4.320312 -8.125 4.5625 -8.03125 C 4.8125 -7.9375 5.023438 -7.804688 5.203125 -7.640625 C 5.378906 -7.484375 5.519531 -7.300781 5.625 -7.09375 C 5.726562 -6.882812 5.785156 -6.671875 5.796875 -6.453125 L 5.171875 -6.328125 C 5.046875 -6.296875 4.957031 -6.351562 4.90625 -6.5 C 4.875 -6.59375 4.828125 -6.691406 4.765625 -6.796875 C 4.710938 -6.898438 4.640625 -6.992188 4.546875 -7.078125 C 4.453125 -7.171875 4.335938 -7.242188 4.203125 -7.296875 C 4.078125 -7.359375 3.929688 -7.390625 3.765625 -7.390625 C 3.578125 -7.390625 3.40625 -7.359375 3.25 -7.296875 C 3.09375 -7.234375 2.960938 -7.148438 2.859375 -7.046875 C 2.753906 -6.941406 2.671875 -6.816406 2.609375 -6.671875 C 2.554688 -6.523438 2.53125 -6.367188 2.53125 -6.203125 C 2.53125 -6.066406 2.546875 -5.9375 2.578125 -5.8125 C 2.609375 -5.695312 2.65625 -5.578125 2.71875 -5.453125 C 2.78125 -5.328125 2.863281 -5.203125 2.96875 -5.078125 C 3.070312 -4.953125 3.195312 -4.816406 3.34375 -4.671875 L 5.65625 -2.3125 C 5.800781 -2.5625 5.914062 -2.820312 6 -3.09375 C 6.09375 -3.375 6.148438 -3.65625 6.171875 -3.9375 C 6.179688 -4 6.203125 -4.050781 6.234375 -4.09375 C 6.273438 -4.132812 6.332031 -4.15625 6.40625 -4.15625 L 7.015625 -4.15625 C 7.015625 -3.726562 6.945312 -3.304688 6.8125 -2.890625 C 6.675781 -2.472656 6.488281 -2.082031 6.25 -1.71875 Z M 7.9375 0 "/></g></g></g><g fill="#ffffff" fill-opacity="1"><g transform="translate(71.987782, 137.885503)"><g/></g></g><g fill="#ffffff" fill-opacity="1"><g transform="translate(78.915418, 137.885503)"><g><path d="M 5.625 -0.921875 L 5.625 0 L 1.03125 0 L 1.03125 -8.078125 L 2.125 -8.078125 L 2.125 -0.921875 Z M 5.625 -0.921875 "/></g></g></g><g fill="#ffffff" fill-opacity="1"><g transform="translate(88.747553, 137.885503)"><g><path d="M 5.328125 -3 L 4.0625 -6.296875 C 4.019531 -6.390625 3.976562 -6.5 3.9375 -6.625 C 3.894531 -6.757812 3.851562 -6.898438 3.8125 -7.046875 C 3.738281 -6.742188 3.660156 -6.488281 3.578125 -6.28125 L 2.3125 -3 Z M 7.609375 0 L 6.75 0 C 6.65625 0 6.578125 -0.0195312 6.515625 -0.0625 C 6.460938 -0.113281 6.421875 -0.179688 6.390625 -0.265625 L 5.625 -2.21875 L 2 -2.21875 L 1.25 -0.265625 C 1.226562 -0.191406 1.179688 -0.128906 1.109375 -0.078125 C 1.046875 -0.0234375 0.96875 0 0.875 0 L 0.03125 0 L 3.265625 -8.078125 L 4.375 -8.078125 Z M 7.609375 0 "/></g></g></g><g fill="#ffffff" fill-opacity="1"><g transform="translate(100.4239, 137.885503)"><g><path d="M 5.171875 -6.8125 C 5.128906 -6.757812 5.085938 -6.71875 5.046875 -6.6875 C 5.015625 -6.664062 4.96875 -6.65625 4.90625 -6.65625 C 4.84375 -6.65625 4.769531 -6.6875 4.6875 -6.75 C 4.601562 -6.8125 4.492188 -6.878906 4.359375 -6.953125 C 4.234375 -7.035156 4.078125 -7.109375 3.890625 -7.171875 C 3.710938 -7.234375 3.492188 -7.265625 3.234375 -7.265625 C 2.984375 -7.265625 2.765625 -7.226562 2.578125 -7.15625 C 2.398438 -7.09375 2.242188 -7.003906 2.109375 -6.890625 C 1.984375 -6.785156 1.890625 -6.65625 1.828125 -6.5 C 1.765625 -6.34375 1.734375 -6.175781 1.734375 -6 C 1.734375 -5.78125 1.785156 -5.59375 1.890625 -5.4375 C 2.003906 -5.289062 2.15625 -5.164062 2.34375 -5.0625 C 2.53125 -4.957031 2.738281 -4.863281 2.96875 -4.78125 C 3.195312 -4.707031 3.429688 -4.628906 3.671875 -4.546875 C 3.910156 -4.460938 4.144531 -4.367188 4.375 -4.265625 C 4.613281 -4.171875 4.820312 -4.039062 5 -3.875 C 5.1875 -3.71875 5.332031 -3.523438 5.4375 -3.296875 C 5.550781 -3.066406 5.609375 -2.785156 5.609375 -2.453125 C 5.609375 -2.097656 5.546875 -1.765625 5.421875 -1.453125 C 5.304688 -1.148438 5.132812 -0.878906 4.90625 -0.640625 C 4.675781 -0.410156 4.390625 -0.226562 4.046875 -0.09375 C 3.710938 0.03125 3.332031 0.09375 2.90625 0.09375 C 2.375 0.09375 1.894531 0 1.46875 -0.1875 C 1.039062 -0.382812 0.675781 -0.644531 0.375 -0.96875 L 0.6875 -1.484375 C 0.71875 -1.523438 0.753906 -1.554688 0.796875 -1.578125 C 0.835938 -1.609375 0.882812 -1.625 0.9375 -1.625 C 0.988281 -1.625 1.046875 -1.601562 1.109375 -1.5625 C 1.171875 -1.53125 1.238281 -1.484375 1.3125 -1.421875 C 1.394531 -1.359375 1.488281 -1.289062 1.59375 -1.21875 C 1.695312 -1.144531 1.8125 -1.078125 1.9375 -1.015625 C 2.0625 -0.960938 2.207031 -0.914062 2.375 -0.875 C 2.539062 -0.832031 2.726562 -0.8125 2.9375 -0.8125 C 3.195312 -0.8125 3.425781 -0.847656 3.625 -0.921875 C 3.832031 -0.992188 4.003906 -1.09375 4.140625 -1.21875 C 4.285156 -1.351562 4.394531 -1.507812 4.46875 -1.6875 C 4.539062 -1.875 4.578125 -2.078125 4.578125 -2.296875 C 4.578125 -2.535156 4.519531 -2.734375 4.40625 -2.890625 C 4.300781 -3.046875 4.160156 -3.175781 3.984375 -3.28125 C 3.804688 -3.394531 3.597656 -3.488281 3.359375 -3.5625 C 3.128906 -3.632812 2.894531 -3.707031 2.65625 -3.78125 C 2.414062 -3.851562 2.175781 -3.941406 1.9375 -4.046875 C 1.707031 -4.148438 1.5 -4.28125 1.3125 -4.4375 C 1.132812 -4.601562 0.988281 -4.804688 0.875 -5.046875 C 0.769531 -5.296875 0.71875 -5.597656 0.71875 -5.953125 C 0.71875 -6.234375 0.769531 -6.507812 0.875 -6.78125 C 0.988281 -7.050781 1.148438 -7.285156 1.359375 -7.484375 C 1.578125 -7.691406 1.84375 -7.859375 2.15625 -7.984375 C 2.46875 -8.109375 2.820312 -8.171875 3.21875 -8.171875 C 3.664062 -8.171875 4.078125 -8.097656 4.453125 -7.953125 C 4.828125 -7.816406 5.15625 -7.613281 5.4375 -7.34375 Z M 5.171875 -6.8125 "/></g></g></g><g fill="#ffffff" fill-opacity="1"><g transform="translate(110.583131, 137.885503)"><g><path d="M 7.578125 -8.078125 L 7.578125 0 L 6.484375 0 L 6.484375 -3.671875 L 2.125 -3.671875 L 2.125 0 L 1.03125 0 L 1.03125 -8.078125 L 2.125 -8.078125 L 2.125 -4.484375 L 6.484375 -4.484375 L 6.484375 -8.078125 Z M 7.578125 -8.078125 "/></g></g></g><g fill="#ffffff" fill-opacity="1"><g transform="translate(123.235154, 137.885503)"><g/></g></g><g fill="#ffffff" fill-opacity="1"><g transform="translate(130.162785, 137.885503)"><g><path d="M 8.03125 -4.03125 C 8.03125 -3.425781 7.9375 -2.875 7.75 -2.375 C 7.5625 -1.882812 7.289062 -1.460938 6.9375 -1.109375 C 6.582031 -0.753906 6.160156 -0.476562 5.671875 -0.28125 C 5.179688 -0.09375 4.640625 0 4.046875 0 L 1.03125 0 L 1.03125 -8.078125 L 4.046875 -8.078125 C 4.640625 -8.078125 5.179688 -7.976562 5.671875 -7.78125 C 6.160156 -7.59375 6.582031 -7.320312 6.9375 -6.96875 C 7.289062 -6.613281 7.5625 -6.1875 7.75 -5.6875 C 7.9375 -5.195312 8.03125 -4.644531 8.03125 -4.03125 Z M 6.921875 -4.03125 C 6.921875 -4.53125 6.851562 -4.972656 6.71875 -5.359375 C 6.582031 -5.753906 6.390625 -6.085938 6.140625 -6.359375 C 5.890625 -6.628906 5.585938 -6.835938 5.234375 -6.984375 C 4.878906 -7.128906 4.484375 -7.203125 4.046875 -7.203125 L 2.125 -7.203125 L 2.125 -0.890625 L 4.046875 -0.890625 C 4.484375 -0.890625 4.878906 -0.957031 5.234375 -1.09375 C 5.585938 -1.238281 5.890625 -1.445312 6.140625 -1.71875 C 6.390625 -1.988281 6.582031 -2.316406 6.71875 -2.703125 C 6.851562 -3.097656 6.921875 -3.539062 6.921875 -4.03125 Z M 6.921875 -4.03125 "/></g></g></g><g fill="#ffffff" fill-opacity="1"><g transform="translate(142.780972, 137.885503)"><g><path d="M 6.015625 -0.890625 L 6.015625 0 L 1.03125 0 L 1.03125 -8.078125 L 6.015625 -8.078125 L 6.015625 -7.1875 L 2.125 -7.1875 L 2.125 -4.5 L 5.28125 -4.5 L 5.28125 -3.65625 L 2.125 -3.65625 L 2.125 -0.890625 Z M 6.015625 -0.890625 "/></g></g></g><g fill="#ffffff" fill-opacity="1"><g transform="translate(153.334995, 137.885503)"><g><path d="M 5.171875 -6.8125 C 5.128906 -6.757812 5.085938 -6.71875 5.046875 -6.6875 C 5.015625 -6.664062 4.96875 -6.65625 4.90625 -6.65625 C 4.84375 -6.65625 4.769531 -6.6875 4.6875 -6.75 C 4.601562 -6.8125 4.492188 -6.878906 4.359375 -6.953125 C 4.234375 -7.035156 4.078125 -7.109375 3.890625 -7.171875 C 3.710938 -7.234375 3.492188 -7.265625 3.234375 -7.265625 C 2.984375 -7.265625 2.765625 -7.226562 2.578125 -7.15625 C 2.398438 -7.09375 2.242188 -7.003906 2.109375 -6.890625 C 1.984375 -6.785156 1.890625 -6.65625 1.828125 -6.5 C 1.765625 -6.34375 1.734375 -6.175781 1.734375 -6 C 1.734375 -5.78125 1.785156 -5.59375 1.890625 -5.4375 C 2.003906 -5.289062 2.15625 -5.164062 2.34375 -5.0625 C 2.53125 -4.957031 2.738281 -4.863281 2.96875 -4.78125 C 3.195312 -4.707031 3.429688 -4.628906 3.671875 -4.546875 C 3.910156 -4.460938 4.144531 -4.367188 4.375 -4.265625 C 4.613281 -4.171875 4.820312 -4.039062 5 -3.875 C 5.1875 -3.71875 5.332031 -3.523438 5.4375 -3.296875 C 5.550781 -3.066406 5.609375 -2.785156 5.609375 -2.453125 C 5.609375 -2.097656 5.546875 -1.765625 5.421875 -1.453125 C 5.304688 -1.148438 5.132812 -0.878906 4.90625 -0.640625 C 4.675781 -0.410156 4.390625 -0.226562 4.046875 -0.09375 C 3.710938 0.03125 3.332031 0.09375 2.90625 0.09375 C 2.375 0.09375 1.894531 0 1.46875 -0.1875 C 1.039062 -0.382812 0.675781 -0.644531 0.375 -0.96875 L 0.6875 -1.484375 C 0.71875 -1.523438 0.753906 -1.554688 0.796875 -1.578125 C 0.835938 -1.609375 0.882812 -1.625 0.9375 -1.625 C 0.988281 -1.625 1.046875 -1.601562 1.109375 -1.5625 C 1.171875 -1.53125 1.238281 -1.484375 1.3125 -1.421875 C 1.394531 -1.359375 1.488281 -1.289062 1.59375 -1.21875 C 1.695312 -1.144531 1.8125 -1.078125 1.9375 -1.015625 C 2.0625 -0.960938 2.207031 -0.914062 2.375 -0.875 C 2.539062 -0.832031 2.726562 -0.8125 2.9375 -0.8125 C 3.195312 -0.8125 3.425781 -0.847656 3.625 -0.921875 C 3.832031 -0.992188 4.003906 -1.09375 4.140625 -1.21875 C 4.285156 -1.351562 4.394531 -1.507812 4.46875 -1.6875 C 4.539062 -1.875 4.578125 -2.078125 4.578125 -2.296875 C 4.578125 -2.535156 4.519531 -2.734375 4.40625 -2.890625 C 4.300781 -3.046875 4.160156 -3.175781 3.984375 -3.28125 C 3.804688 -3.394531 3.597656 -3.488281 3.359375 -3.5625 C 3.128906 -3.632812 2.894531 -3.707031 2.65625 -3.78125 C 2.414062 -3.851562 2.175781 -3.941406 1.9375 -4.046875 C 1.707031 -4.148438 1.5 -4.28125 1.3125 -4.4375 C 1.132812 -4.601562 0.988281 -4.804688 0.875 -5.046875 C 0.769531 -5.296875 0.71875 -5.597656 0.71875 -5.953125 C 0.71875 -6.234375 0.769531 -6.507812 0.875 -6.78125 C 0.988281 -7.050781 1.148438 -7.285156 1.359375 -7.484375 C 1.578125 -7.691406 1.84375 -7.859375 2.15625 -7.984375 C 2.46875 -8.109375 2.820312 -8.171875 3.21875 -8.171875 C 3.664062 -8.171875 4.078125 -8.097656 4.453125 -7.953125 C 4.828125 -7.816406 5.15625 -7.613281 5.4375 -7.34375 Z M 5.171875 -6.8125 "/></g></g></g><g fill="#ffffff" fill-opacity="1"><g transform="translate(163.494226, 137.885503)"><g><path d="M 2.125 0 L 1.03125 0 L 1.03125 -8.078125 L 2.125 -8.078125 Z M 2.125 0 "/></g></g></g><g fill="#ffffff" fill-opacity="1"><g transform="translate(170.692567, 137.885503)"><g><path d="M 7.59375 -3.890625 L 7.59375 -0.78125 C 7.1875 -0.488281 6.753906 -0.269531 6.296875 -0.125 C 5.835938 0.0195312 5.332031 0.09375 4.78125 0.09375 C 4.132812 0.09375 3.546875 -0.00390625 3.015625 -0.203125 C 2.492188 -0.410156 2.046875 -0.695312 1.671875 -1.0625 C 1.304688 -1.425781 1.023438 -1.859375 0.828125 -2.359375 C 0.628906 -2.867188 0.53125 -3.425781 0.53125 -4.03125 C 0.53125 -4.65625 0.625 -5.21875 0.8125 -5.71875 C 1.007812 -6.226562 1.285156 -6.664062 1.640625 -7.03125 C 2.003906 -7.394531 2.441406 -7.675781 2.953125 -7.875 C 3.460938 -8.070312 4.035156 -8.171875 4.671875 -8.171875 C 4.984375 -8.171875 5.273438 -8.144531 5.546875 -8.09375 C 5.828125 -8.050781 6.082031 -7.984375 6.3125 -7.890625 C 6.550781 -7.804688 6.769531 -7.703125 6.96875 -7.578125 C 7.164062 -7.453125 7.351562 -7.3125 7.53125 -7.15625 L 7.21875 -6.65625 C 7.164062 -6.582031 7.097656 -6.535156 7.015625 -6.515625 C 6.941406 -6.492188 6.859375 -6.507812 6.765625 -6.5625 C 6.679688 -6.613281 6.578125 -6.675781 6.453125 -6.75 C 6.335938 -6.832031 6.195312 -6.90625 6.03125 -6.96875 C 5.863281 -7.039062 5.664062 -7.097656 5.4375 -7.140625 C 5.207031 -7.191406 4.9375 -7.21875 4.625 -7.21875 C 4.175781 -7.21875 3.765625 -7.144531 3.390625 -7 C 3.023438 -6.851562 2.710938 -6.640625 2.453125 -6.359375 C 2.191406 -6.085938 1.988281 -5.753906 1.84375 -5.359375 C 1.707031 -4.960938 1.640625 -4.519531 1.640625 -4.03125 C 1.640625 -3.53125 1.710938 -3.078125 1.859375 -2.671875 C 2.003906 -2.273438 2.210938 -1.9375 2.484375 -1.65625 C 2.753906 -1.375 3.078125 -1.160156 3.453125 -1.015625 C 3.835938 -0.867188 4.269531 -0.796875 4.75 -0.796875 C 5.125 -0.796875 5.457031 -0.835938 5.75 -0.921875 C 6.039062 -1.003906 6.328125 -1.125 6.609375 -1.28125 L 6.609375 -3.046875 L 5.359375 -3.046875 C 5.285156 -3.046875 5.222656 -3.066406 5.171875 -3.109375 C 5.128906 -3.148438 5.109375 -3.203125 5.109375 -3.265625 L 5.109375 -3.890625 Z M 7.59375 -3.890625 "/></g></g></g><g fill="#ffffff" fill-opacity="1"><g transform="translate(182.972371, 137.885503)"><g><path d="M 7.578125 -8.078125 L 7.578125 0 L 7.03125 0 C 6.945312 0 6.875 -0.015625 6.8125 -0.046875 C 6.757812 -0.078125 6.703125 -0.128906 6.640625 -0.203125 L 1.96875 -6.296875 C 1.976562 -6.191406 1.984375 -6.09375 1.984375 -6 C 1.984375 -5.914062 1.984375 -5.835938 1.984375 -5.765625 L 1.984375 0 L 1.03125 0 L 1.03125 -8.078125 L 1.59375 -8.078125 C 1.644531 -8.078125 1.6875 -8.070312 1.71875 -8.0625 C 1.75 -8.0625 1.773438 -8.054688 1.796875 -8.046875 C 1.828125 -8.035156 1.851562 -8.015625 1.875 -7.984375 C 1.90625 -7.960938 1.9375 -7.929688 1.96875 -7.890625 L 6.65625 -1.8125 C 6.644531 -1.90625 6.632812 -2 6.625 -2.09375 C 6.625 -2.1875 6.625 -2.273438 6.625 -2.359375 L 6.625 -8.078125 Z M 7.578125 -8.078125 "/></g></g></g><g fill="#ffffff" fill-opacity="1"><g transform="translate(195.624404, 137.885503)"><g><path d="M 6.015625 -0.890625 L 6.015625 0 L 1.03125 0 L 1.03125 -8.078125 L 6.015625 -8.078125 L 6.015625 -7.1875 L 2.125 -7.1875 L 2.125 -4.5 L 5.28125 -4.5 L 5.28125 -3.65625 L 2.125 -3.65625 L 2.125 -0.890625 Z M 6.015625 -0.890625 "/></g></g></g><g fill="#ffffff" fill-opacity="1"><g transform="translate(206.178428, 137.885503)"><g><path d="M 3.265625 -4.171875 C 3.585938 -4.171875 3.867188 -4.207031 4.109375 -4.28125 C 4.347656 -4.363281 4.550781 -4.472656 4.71875 -4.609375 C 4.882812 -4.753906 5.007812 -4.921875 5.09375 -5.109375 C 5.175781 -5.304688 5.21875 -5.523438 5.21875 -5.765625 C 5.21875 -6.242188 5.054688 -6.601562 4.734375 -6.84375 C 4.421875 -7.09375 3.945312 -7.21875 3.3125 -7.21875 L 2.125 -7.21875 L 2.125 -4.171875 Z M 7 0 L 6.03125 0 C 5.832031 0 5.6875 -0.078125 5.59375 -0.234375 L 3.5 -3.125 C 3.4375 -3.207031 3.367188 -3.269531 3.296875 -3.3125 C 3.222656 -3.351562 3.109375 -3.375 2.953125 -3.375 L 2.125 -3.375 L 2.125 0 L 1.03125 0 L 1.03125 -8.078125 L 3.3125 -8.078125 C 3.820312 -8.078125 4.265625 -8.023438 4.640625 -7.921875 C 5.015625 -7.816406 5.320312 -7.664062 5.5625 -7.46875 C 5.800781 -7.28125 5.976562 -7.046875 6.09375 -6.765625 C 6.21875 -6.492188 6.28125 -6.1875 6.28125 -5.84375 C 6.28125 -5.5625 6.234375 -5.296875 6.140625 -5.046875 C 6.046875 -4.796875 5.914062 -4.570312 5.75 -4.375 C 5.582031 -4.175781 5.375 -4.003906 5.125 -3.859375 C 4.875 -3.722656 4.59375 -3.617188 4.28125 -3.546875 C 4.425781 -3.472656 4.546875 -3.359375 4.640625 -3.203125 Z M 7 0 "/></g></g></g></svg>